<?xml version="1.0" encoding="iso-8859-1"?>
<!-- Generator: Adobe Illustrator 19.0.0, SVG Export Plug-In . SVG Version: 6.00 Build 0)  -->
<svg version="1.1" id="Layer_1" xmlns="http://www.w3.org/2000/svg" xmlns:xlink="http://www.w3.org/1999/xlink" x="0px" y="0px"
	 viewBox="0 0 511.998 511.998" style="enable-background:new 0 0 511.998 511.998;" xml:space="preserve">
<path style="fill:#AA6100;" d="M379.25,146.279c-4.523-56.512-24.248-23.232-24.248-23.232s-21.754,42.059-74.003,42.059h-86.757
	c-34.38,0-62.51,28.129-62.51,62.511l0,0c0,34.38,28.13,62.511,62.51,62.511h110.802c8.512,0,24.367-4.968,24.471-5.023
	C387.48,254.781,379.25,146.276,379.25,146.279z"/>
<path style="fill:#9A4C00;" d="M198.478,227.615L198.478,227.615c0-34.38,28.129-62.511,62.511-62.511h-66.744
	c-34.38,0-62.51,28.129-62.51,62.511l0,0c0,34.38,28.13,62.51,62.51,62.51h66.744C226.607,290.126,198.478,261.997,198.478,227.615z
	"/>
<path style="fill:#CC7400;" d="M353.586,398.077H158.412c-34.38,0-62.511-28.129-62.511-62.51l0,0
	c0-34.38,28.13-62.511,62.511-62.511h195.175c34.38,0,62.51,28.13,62.51,62.511l0,0
	C416.097,369.947,387.967,398.077,353.586,398.077z"/>
<path style="fill:#AA6100;" d="M159.778,335.566L159.778,335.566c0-34.38,28.13-62.511,62.51-62.511h-63.877
	c-34.38,0-62.511,28.129-62.511,62.511l0,0c0,34.38,28.13,62.51,62.511,62.51h63.877
	C187.908,398.077,159.778,369.947,159.778,335.566z"/>
<path style="fill:#EE8700;" d="M384.578,511.998H127.42c-34.38,0-62.51-28.129-62.51-62.51l0,0c0-34.38,28.13-62.51,62.51-62.51
	h257.159c34.38,0,62.51,28.13,62.51,62.51l0,0C447.088,483.868,418.958,511.998,384.578,511.998z"/>
<g>
	<path style="fill:#CC7400;" d="M130.153,448.591L130.153,448.591c0-30.821,22.611-56.601,52.06-61.614h-54.794
		c-34.38,0-62.511,28.129-62.511,62.51l0,0c0,34.38,28.13,62.51,62.511,62.51l65.092-0.018
		C158.131,511.98,130.153,482.971,130.153,448.591z"/>
	<path style="fill:#CC7400;" d="M406.572,435.333c-2.008,0-4.015-0.765-5.547-2.297c-4.404-4.401-10.244-6.824-16.446-6.824
		c-4.335,0-7.847-3.512-7.847-7.847c0-4.335,3.512-7.847,7.847-7.847c10.393,0,20.173,4.055,27.54,11.418
		c3.066,3.064,3.067,8.032,0.003,11.097C410.588,434.567,408.579,435.333,406.572,435.333z"/>
	<path style="fill:#CC7400;" d="M384.578,488.457h-54.294c-4.335,0-7.847-3.512-7.847-7.847s3.512-7.847,7.847-7.847h54.294
		c11.004,0,20.593-7.818,22.802-18.588c0.872-4.247,5.024-6.981,9.264-6.11c4.246,0.87,6.982,5.018,6.11,9.264
		C419.053,475.366,402.997,488.457,384.578,488.457z"/>
</g>
<g>
	<path style="fill:#E0E0E2;" d="M233.021,116.574c-4.335,0-7.847-3.512-7.847-7.847c0-10.65,3.557-16.367,6.416-20.961
		c2.35-3.775,4.047-6.503,4.047-12.667c0-6.166-1.697-8.893-4.047-12.669c-2.857-4.593-6.416-10.31-6.416-20.959
		s3.557-16.366,6.417-20.959c2.349-3.774,4.046-6.503,4.046-12.665c0-4.335,3.512-7.847,7.847-7.847s7.847,3.512,7.847,7.847
		c0,10.648-3.557,16.365-6.416,20.958c-2.35,3.774-4.047,6.503-4.047,12.666c0,6.166,1.697,8.892,4.047,12.667
		c2.857,4.595,6.416,10.312,6.416,20.961s-3.557,16.367-6.416,20.959c-2.35,3.776-4.047,6.505-4.047,12.669
		C240.868,113.061,237.355,116.574,233.021,116.574z"/>
	<path style="fill:#E0E0E2;" d="M295.059,149.357c-4.335,0-7.847-3.512-7.847-7.847c0-10.649,3.557-16.367,6.416-20.959
		c2.35-3.776,4.047-6.505,4.047-12.669c0-6.166-1.697-8.892-4.047-12.667c-2.857-4.595-6.416-10.311-6.416-20.961
		c0-10.648,3.557-16.365,6.416-20.958c2.35-3.774,4.047-6.503,4.047-12.666c0-4.335,3.512-7.847,7.847-7.847
		s7.847,3.512,7.847,7.847c0,10.649-3.557,16.366-6.417,20.959c-2.349,3.774-4.046,6.503-4.046,12.666
		c0,6.165,1.697,8.893,4.047,12.669c2.857,4.593,6.416,10.31,6.416,20.959c0,10.65-3.557,16.367-6.416,20.961
		c-2.35,3.775-4.047,6.503-4.047,12.667C302.906,145.844,299.394,149.357,295.059,149.357z"/>
</g>
<g>
</g>
<g>
</g>
<g>
</g>
<g>
</g>
<g>
</g>
<g>
</g>
<g>
</g>
<g>
</g>
<g>
</g>
<g>
</g>
<g>
</g>
<g>
</g>
<g>
</g>
<g>
</g>
<g>
</g>
</svg>
